<svg id="Layer_1" data-name="Layer 1" xmlns="http://www.w3.org/2000/svg" viewBox="0 0 128 128"><defs><style>.cls-1{fill:#042f5b;}</style></defs><title>logo</title><path class="cls-1" d="M18.63,98.39c-3.32-11.94,3.09-29.18,5-40.39C27.12,37.91,7.22,42.74,3.87,62.17c-.58,3.38-.21,7,1.81,9.48a2,2,0,0,1,.45,1.76,1.67,1.67,0,0,1-1.32,1.4c-.58.08-1.28-.28-1.89-1.37A16.12,16.12,0,0,1,1.35,62.57c4.15-24.07,29-29.16,24.8-5.09-2.1,12.2-6.73,22.6-5.45,33.83,8-25.61,27-51.72,41.1-59.41a1.91,1.91,0,0,1,.45-.19c.63-.08.91.79.76,1.65a2.21,2.21,0,0,1-1,1.56C48,43.12,29.78,68.47,20.9,98.09a1.5,1.5,0,0,1-1.1,1.18A1.1,1.1,0,0,1,18.63,98.39Z"/><path class="cls-1" d="M38.18,77c.3-3.12,3.23-9.09,4.62-12.2,1.4-2.95,3-1.52,1.68,1.27-1.16,2.44-3.84,7.63-4.14,10.48-.11,1.14.2,2.48,1.63,2.5,2.66,0,5.23-3.4,7.66-7.6.93-1.62,2.42-.38,1.66.89-3.81,6.41-6.9,9.26-10,9.62C39.22,82.18,37.86,80.18,38.18,77Zm9-20.48c2.22-.3,1.34,3.65-.76,3.93C44.47,60.7,45.15,56.78,47.13,56.52Z"/><path class="cls-1" d="M48.34,75.55c.5-3.15,10.65-25.17,12.19-28.3,1.48-3,2.81-1.49,1.53,1.23C60.9,51,51.17,71.67,50.39,75.12c-.28,1.15.2,2.63,1.7,2.49,2.88-.33,5.49-3.54,7.9-7.69.93-1.56,2.37-.26,1.62,1-3.86,6.47-7.3,9.31-10.34,9.66C49.22,80.75,47.82,78.76,48.34,75.55Z"/><path class="cls-1" d="M58.6,74.19C59.1,71,69.25,49,70.79,45.89c1.48-3,2.81-1.48,1.53,1.24-1.16,2.49-10.89,23.18-11.67,26.64-.28,1.15.2,2.63,1.7,2.48,2.88-.33,5.48-3.54,7.9-7.69.93-1.56,2.37-.26,1.62,1C68,76,64.57,78.83,61.53,79.18,59.48,79.4,58.08,77.4,58.6,74.19Z"/><path class="cls-1" d="M79.23,59.13c1.55-.2,2.72.44,2.9,1.59A3.71,3.71,0,0,1,83,59.43c.8-.58,2,.32,1.32,1.79-.29.79-7,11.52-5.2,12.87,1.31.94,5.34-3.53,7.63-7.66.79-1.43,2.26-.3,1.67.9-3.93,6.42-7.25,9.25-10,9.61-1.19.16-2.67-.92-1.64-4-1.51,2.06-4.26,4.76-6.36,5C64.23,78.82,72.38,60,79.23,59.13Zm1.12,4.11c.07-.86-.37-1.92-1.21-1.75-4.81.95-10.58,13.94-8.2,13.63S80.05,67,80.35,63.24Z"/><path class="cls-1" d="M98.65,66c-3.86,6.46-7.3,9.31-10.34,9.66-2,.22-3.45-1.78-2.93-5,.27-1.58,2.71-7.43,5.37-13.42l-2.62.34c-1.42.19-.84-2.54.51-2.72L92,54.41c2.46-5.53,4.85-10.63,5.56-12.06,1.48-3,2.81-1.48,1.53,1.24-.49,1.07-2.58,5.55-4.87,10.53L99,53.49c1.57-.1,1.16,2.51-.59,2.74L92.93,57c-2.58,5.77-5.14,11.58-5.5,13.28-.28,1.15.2,2.63,1.69,2.48C92,72.38,94.61,69.17,97,65,98,63.46,99.4,64.76,98.65,66Z"/><path class="cls-1" d="M95.64,69.51c.66-5,6.34-13.86,9.58-14.29,6-.79-1.06,11.78-7.53,15,.17,1.25.84,1.86,3.12,1,2.83-1.12,4.84-3.35,7.21-7.44.87-1.5,2.5-.6,1.78.67-3.61,6.32-7,8.58-9.64,9.67C96.49,75.57,95.2,72.71,95.64,69.51ZM104.83,58c-1.63.22-5.41,5.77-6.71,9.72C101.22,66.12,107.16,57.68,104.83,58Z"/><path class="cls-1" d="M106.73,67.83c.5-3.15,10.65-25.17,12.19-28.3,1.48-3,2.81-1.49,1.53,1.24C119.29,43.26,109.57,64,108.78,67.4c-.28,1.16.2,2.64,1.7,2.49,2.88-.33,5.49-3.54,7.9-7.69.93-1.56,2.37-.26,1.62,1-3.86,6.46-7.29,9.31-10.34,9.66C107.61,73,106.21,71,106.73,67.83Z"/><path class="cls-1" d="M29.73,91.62C48.21,85,102.2,74.76,126,76.61c2.53.2,1.52,2.67-.67,2.54-23.47-1.47-80.48,9.62-95.82,15.74C24.27,97,22.18,94.32,29.73,91.62Z"/></svg>